<?xml version="1.0" standalone="no"?>
<!DOCTYPE svg PUBLIC "-//W3C//DTD SVG 20010904//EN"
 "http://www.w3.org/TR/2001/REC-SVG-20010904/DTD/svg10.dtd">
<svg version="1.0" xmlns="http://www.w3.org/2000/svg"
 width="500.000000pt" height="500.000000pt" viewBox="0 0 500.000000 500.000000"
 preserveAspectRatio="xMidYMid meet">
<metadata>
Created by potrace 1.11, written by Peter Selinger 2001-2013
</metadata>
<g transform="translate(0.000000,500.000000) scale(0.100000,-0.100000)"
fill="#000000" stroke="none">
<path d="M360 3730 l0 -110 68 0 c126 0 191 -37 235 -133 13 -29 190 -604 392
-1279 l369 -1228 252 0 252 0 11 33 c6 17 132 430 281 917 149 487 273 892
276 900 3 8 155 -403 338 -915 l332 -930 234 0 233 0 318 1194 c174 657 329
1224 343 1260 30 76 74 134 119 158 20 11 66 19 122 23 l90 5 3 108 3 107
-526 0 -526 0 3 -107 3 -108 110 -5 c127 -6 177 -25 210 -81 41 -69 31 -131
-120 -749 -76 -311 -166 -698 -201 -860 -34 -162 -63 -288 -63 -279 -1 23 -78
298 -118 424 -19 61 -161 459 -315 885 -154 426 -287 794 -295 818 l-15 42
-148 0 -148 0 -16 -47 c-8 -27 -130 -424 -271 -883 -264 -859 -355 -1168 -355
-1202 0 -10 -4 -16 -10 -13 -5 3 -10 16 -10 27 0 66 -83 382 -284 1083 -80
275 -149 524 -155 553 -26 126 -7 205 62 250 34 23 53 27 146 32 l106 5 3 108
3 107 -671 0 -670 0 0 -110z"/>
</g>
</svg>
